<svg width="244" height="224" id="eK8MpBs1cLA1" xmlns="http://www.w3.org/2000/svg" xmlns:xlink="http://www.w3.org/1999/xlink" viewBox="0 0 246 224" shape-rendering="geometricPrecision" text-rendering="geometricPrecision">
<style><![CDATA[
#eK8MpBs1cLA6_ts {animation: eK8MpBs1cLA6_ts__ts 3000ms linear infinite normal forwards}@keyframes eK8MpBs1cLA6_ts__ts { 0% {transform: translate(67.9202px,113.733px) scale(1,0.399968)} 33.333333% {transform: translate(67.9202px,113.733px) scale(1,1.00888)} 100% {transform: translate(67.9202px,113.733px) scale(1,1.00888)}} #eK8MpBs1cLA10_ts {animation: eK8MpBs1cLA10_ts__ts 3000ms linear infinite normal forwards}@keyframes eK8MpBs1cLA10_ts__ts { 0% {transform: translate(145.9369px,113.733px) scale(1,0.399967)} 33.333333% {transform: translate(145.9369px,113.733px) scale(1,1.00888)} 100% {transform: translate(145.9369px,113.733px) scale(1,1.00888)}}
]]></style>
<path d="M108.764,224c60.069,0,108.764-50.144,108.764-112c0-14.1096-2.534-27.6098-7.158-40.0445-.792-5.9262,12.96-14.1178,27.922-21.194c10.648-5.0361,9.63-21.6245-1.843-24.4903C194.732,15.8504,131.716,0.67332,117.266,0.337091C114.46,0.113748,111.625,0,108.764,0C48.6953,0,0,50.1441,0,112c0,61.856,48.6953,112,108.764,112Z" clip-rule="evenodd" fill="#9ca3af" fill-rule="evenodd"/><path d="M159.788,73.1123c-32.208-9.1364-84.3721-8.8574-111.8055.9452-.1002.0358-.1995.072-.2979.1086-15.2363,5.0162-26.2683,19.7152-26.2683,37.0669c0,21.489,16.9188,38.909,37.7893,38.909c10.3247,0,19.6822-4.263,26.5028-11.173c8.5101-7.198,28.3546-9.479,38.0646-.732c6.874,7.339,16.522,11.905,27.207,11.905c20.87,0,37.789-17.42,37.789-38.909c0-16.6416-10.147-30.8431-24.419-36.4029-1.334-.6557-2.849-1.2319-4.562-1.7178Z" clip-rule="evenodd" fill="#fff" fill-rule="evenodd"/><rect width="29.3974" height="11.6469" rx="5.82344" ry="5.82344" transform="matrix(.984034-.17798 0.168139 0.985763 54.7644 88.0901)" fill="#9ca3af"/><rect width="29.4302" height="11.6346" rx="5.81728" ry="5.81728" transform="matrix(.963978 0.265982-.251822 0.967774 128.062 82.8579)" fill="#9ca3af"/><g id="eK8MpBs1cLA6_ts" transform="translate(67.9202,113.733) scale(1,0.399968)"><g transform="translate(-67.920199,-113.733)"><rect width="23.6287" height="3.36542" rx="1.68271" ry="1.68271" transform="matrix(0 1-1 0 63.943 113.733)" fill="#9ca3af"/><rect width="23.6287" height="3.36542" rx="1.68271" ry="1.68271" transform="matrix(0 1-1 0 75.263 113.733)" fill="#9ca3af"/></g></g><rect width="35.4898" height="11.0267" rx="3.99063" ry="3.99063" transform="translate(50.1753 112.157)" fill="#9ca3af"/><g id="eK8MpBs1cLA10_ts" transform="translate(145.9369,113.733) scale(1,0.399967)"><g transform="translate(-145.936899,-113.733)"><rect width="23.6287" height="3.36542" rx="1.68271" ry="1.68271" transform="matrix(0 1-1 0 141.959 113.733)" fill="#9ca3af"/><rect width="23.6287" height="3.36542" rx="1.68271" ry="1.68271" transform="matrix(0 1-1 0 153.279 113.733)" fill="#9ca3af"/></g></g><rect width="35.4898" height="11.0267" rx="3.99063" ry="3.99063" transform="translate(128.192 112.157)" fill="#9ca3af"/><path d="M109.816,31.1758l13.175,4.8756-13.158,4.8692-4.74,13.5828-4.741-13.583-13.1572-4.8691L100.37,31.1757l4.723-13.5331l4.723,13.5332Zm-4.723,4.8972v0v0v0v0Z" clip-rule="evenodd" fill="#fff" fill-rule="evenodd"/></svg>
