<svg width="246" height="224" viewBox="0 0 246 224" fill="none" xmlns="http://www.w3.org/2000/svg">
<path fill-rule="evenodd" clip-rule="evenodd" d="M108.764 224C168.833 224 217.528 173.856 217.528 112C217.528 97.8905 214.995 84.3904 210.37 71.9558C209.584 66.0734 223.127 57.9588 237.961 50.9185C248.702 45.8204 247.673 29.074 236.093 26.1822C194.374 15.7642 131.675 0.672291 117.266 0.337092C114.46 0.113748 111.625 0 108.764 0C48.6953 0 0 50.1441 0 112C0 173.856 48.6953 224 108.764 224Z" fill="#9CA3AF"/>
<path fill-rule="evenodd" clip-rule="evenodd" d="M159.788 73.1124C127.58 63.976 75.4159 64.2549 47.9825 74.0575C47.8823 74.0933 47.7831 74.1295 47.6847 74.1661C32.4483 79.1823 21.4163 93.8813 21.4163 111.233C21.4163 132.722 38.3351 150.142 59.2056 150.142C69.5303 150.142 78.8878 145.879 85.7084 138.969C94.2184 131.771 114.063 129.49 123.773 138.237C130.647 145.577 140.295 150.142 150.98 150.142C171.85 150.142 188.769 132.722 188.769 111.233C188.769 94.5915 178.622 80.3899 164.35 74.8302C163.016 74.1745 161.501 73.5982 159.788 73.1124Z" fill="white"/>
<rect width="29.3974" height="11.6469" rx="5.82344" transform="matrix(0.984034 -0.17798 0.168139 0.985763 54.7646 88.09)" fill="#9CA3AF"/>
<rect width="29.4302" height="11.6346" rx="5.81728" transform="matrix(0.963978 0.265982 -0.251822 0.967774 128.062 82.858)" fill="#9CA3AF"/>
<path d="M50.1753 116.186C50.1753 113.961 51.9787 112.158 54.2034 112.158H81.637C83.8617 112.158 85.6651 113.961 85.6651 116.186V119.156C85.6651 121.381 83.8617 123.184 81.637 123.184H54.2034C51.9787 123.184 50.1753 121.381 50.1753 119.156V116.186Z" fill="#9CA3AF"/>
<path d="M128.192 116.186C128.192 113.961 129.995 112.158 132.22 112.158H159.654C161.878 112.158 163.682 113.961 163.682 116.186V119.156C163.682 121.381 161.878 123.184 159.654 123.184H132.22C129.995 123.184 128.192 121.381 128.192 119.156V116.186Z" fill="#9CA3AF"/>
<path fill-rule="evenodd" clip-rule="evenodd" d="M109.816 31.1759L122.991 36.0515L109.833 40.9207L105.093 54.5035L100.353 40.9205L87.1951 36.0514L100.37 31.1758L105.093 17.6427L109.816 31.1759ZM105.093 36.0731H105.093V36.0731H105.093V36.0731Z" fill="white"/>
</svg>
