<svg viewBox="0 0 1420 520" fill="none" xmlns="http://www.w3.org/2000/svg">
<g id="Things Logo" clip-path="url(#clip0_329_7328)">
<path id="Thing" d="M125.806 402.406H79.6649V183.958H5.76759V145.027H199.703V183.958H125.806V402.406ZM280.201 193.691C280.201 201.381 279.841 208.951 279.12 216.401C278.639 223.61 278.159 229.017 277.678 232.622H280.562C284.647 225.893 289.694 220.486 295.702 216.401C301.71 212.075 308.318 208.831 315.528 206.668C322.978 204.505 330.668 203.424 338.598 203.424C353.258 203.424 365.874 205.947 376.448 210.994C387.022 216.04 395.073 223.851 400.6 234.425C406.368 244.758 409.251 258.336 409.251 275.158V402.406H363.832V284.17C363.832 269.27 360.948 258.216 355.18 251.006C349.413 243.797 340.281 240.192 327.784 240.192C315.768 240.192 306.276 242.836 299.307 248.123C292.337 253.169 287.411 260.739 284.527 270.833C281.643 280.686 280.201 292.821 280.201 307.24V402.406H234.782V128.445H280.201V193.691ZM511.483 207.029V402.406H466.063V207.029H511.483ZM488.773 131.689C495.501 131.689 501.389 133.492 506.436 137.096C511.483 140.461 514.006 146.589 514.006 155.481C514.006 164.132 511.483 170.38 506.436 174.225C501.389 177.83 495.501 179.632 488.773 179.632C481.803 179.632 475.796 177.83 470.749 174.225C465.943 170.38 463.539 164.132 463.539 155.481C463.539 146.589 465.943 140.461 470.749 137.096C475.796 133.492 481.803 131.689 488.773 131.689ZM674.096 203.424C695.965 203.424 713.027 209.071 725.283 220.366C737.78 231.661 744.028 249.925 744.028 275.158V402.406H698.608V284.17C698.608 269.511 695.724 258.576 689.957 251.367C684.189 243.917 675.057 240.192 662.561 240.192C644.297 240.192 631.8 245.96 625.071 257.495C618.343 268.79 614.978 285.252 614.978 306.88V402.406H569.558V207.029H604.524L611.013 232.622H613.536C617.862 225.893 623.149 220.366 629.397 216.04C635.645 211.715 642.614 208.591 650.305 206.668C657.995 204.505 665.925 203.424 674.096 203.424ZM866.446 203.424C878.702 203.424 889.756 205.827 899.609 210.633C909.462 215.44 917.753 222.649 924.482 232.262H926.285L930.61 207.029H968.46V403.848C968.46 422.352 964.975 437.852 958.006 450.349C951.037 463.086 940.583 472.698 926.645 479.187C912.707 485.675 895.284 488.92 874.376 488.92C860.438 488.92 847.581 487.958 835.805 486.036C824.03 484.354 812.855 481.35 802.281 477.024V439.535C809.731 442.659 817.421 445.302 825.352 447.465C833.522 449.868 841.933 451.671 850.585 452.872C859.236 454.074 868.128 454.675 877.26 454.675C892.16 454.675 903.454 450.469 911.145 442.058C919.075 433.647 923.04 421.631 923.04 406.011V400.964C923.04 397.359 923.16 393.154 923.401 388.347C923.881 383.541 924.242 379.696 924.482 376.812H923.04C916.311 386.905 908.141 394.355 898.528 399.161C888.915 403.728 877.861 406.011 865.364 406.011C841.573 406.011 822.948 397.119 809.491 379.335C796.033 361.552 789.304 336.799 789.304 305.078C789.304 283.689 792.308 265.425 798.316 250.285C804.564 235.146 813.456 223.61 824.991 215.68C836.526 207.509 850.345 203.424 866.446 203.424ZM878.341 240.553C869.209 240.553 861.399 243.076 854.911 248.123C848.662 252.929 843.856 260.138 840.492 269.751C837.367 279.364 835.805 291.38 835.805 305.799C835.805 326.946 839.41 342.927 846.62 353.742C853.829 364.556 864.643 369.963 879.062 369.963C887.233 369.963 894.202 369.002 899.97 367.079C905.737 364.916 910.424 361.552 914.028 356.986C917.873 352.18 920.757 346.172 922.68 338.962C924.602 331.512 925.564 322.621 925.564 312.287V305.438C925.564 289.818 923.881 277.321 920.517 267.949C917.153 258.336 911.986 251.367 905.017 247.041C898.288 242.715 889.396 240.553 878.341 240.553Z" fill="#1F2937"/>
<path id="Subtract" fill-rule="evenodd" clip-rule="evenodd" d="M1106.51 87.0295C1086.6 87.0295 1070.46 103.169 1070.46 123.077V399.101C1070.46 419.009 1086.6 435.148 1106.51 435.148H1258.68V390.885C1270.57 396.172 1283.66 401.063 1297.93 405.557C1312.21 409.786 1326.75 411.901 1341.55 411.901C1352.92 411.901 1362.17 410.447 1369.31 407.539C1376.71 404.367 1382.13 400.138 1385.56 394.851C1389 389.299 1390.72 382.955 1390.72 375.818C1390.72 367.887 1388.47 361.146 1383.98 355.595C1379.48 350.044 1372.88 344.889 1364.15 340.131C1355.43 335.372 1344.59 330.35 1331.64 325.063C1322.91 321.362 1314.32 317.265 1305.86 312.771C1297.67 308.012 1290.27 302.329 1283.66 295.72C1277.05 289.111 1271.76 281.313 1267.8 272.325C1263.83 263.338 1261.85 252.764 1261.85 240.604C1261.85 224.478 1265.68 210.6 1273.35 198.969C1281.28 187.337 1292.25 178.482 1306.26 172.402C1320.53 166.322 1337.06 163.282 1355.82 163.282C1370.89 163.282 1385.04 164.868 1398.25 168.04C1405.06 169.675 1411.84 171.661 1418.58 173.998V123.077C1418.58 103.169 1402.44 87.0295 1382.54 87.0295H1106.51ZM1418.58 221.227C1407.9 216.739 1397.55 213.153 1387.55 210.468C1376.71 207.56 1365.61 206.106 1354.24 206.106C1345.25 206.106 1337.58 207.56 1331.24 210.468C1324.9 213.111 1320.14 216.944 1316.97 221.967C1313.79 226.99 1312.21 232.805 1312.21 239.414C1312.21 247.08 1314.19 253.557 1318.15 258.844C1322.12 264.131 1328.2 269.153 1336.39 273.911C1344.85 278.405 1355.69 283.56 1368.91 289.376C1384.24 295.985 1397.2 302.858 1407.77 309.995C1411.7 312.65 1415.31 315.507 1418.58 318.565V221.227Z" fill="#1F2937"/>
</g>
</svg>
